<mxfile host="app.diagrams.net" modified="2023-03-29T22:40:50.520Z" agent="Mozilla/5.0 (Windows NT 10.0; Win64; x64) AppleWebKit/537.36 (KHTML, like Gecko) Chrome/111.0.0.0 Safari/537.36" etag="spfPWWPL3zpOHyXNi4s4" version="21.1.2" type="device">
  <diagram name="PÃ¡gina-1" id="1Pry5bvXDmyStpkKvcnY">
    <mxGraphModel dx="1717" dy="405" grid="1" gridSize="10" guides="1" tooltips="1" connect="1" arrows="1" fold="1" page="1" pageScale="1" pageWidth="827" pageHeight="1169" math="0" shadow="0">
      <root>
        <mxCell id="0" />
        <mxCell id="1" parent="0" />
        <mxCell id="DPJxdHyNQ4-wyFxUwknC-1" style="edgeStyle=orthogonalEdgeStyle;rounded=0;orthogonalLoop=1;jettySize=auto;html=1;exitX=0;exitY=1;exitDx=0;exitDy=0;entryX=1;entryY=0;entryDx=0;entryDy=0;" edge="1" parent="1" source="mOchrtGBSUvOeZHwPW9w-1" target="mOchrtGBSUvOeZHwPW9w-22">
          <mxGeometry relative="1" as="geometry" />
        </mxCell>
        <mxCell id="DPJxdHyNQ4-wyFxUwknC-3" style="edgeStyle=orthogonalEdgeStyle;rounded=0;orthogonalLoop=1;jettySize=auto;html=1;exitX=1;exitY=1;exitDx=0;exitDy=0;entryX=0.5;entryY=0;entryDx=0;entryDy=0;" edge="1" parent="1" source="mOchrtGBSUvOeZHwPW9w-1" target="mOchrtGBSUvOeZHwPW9w-12">
          <mxGeometry relative="1" as="geometry" />
        </mxCell>
        <mxCell id="DPJxdHyNQ4-wyFxUwknC-4" style="edgeStyle=orthogonalEdgeStyle;rounded=0;orthogonalLoop=1;jettySize=auto;html=1;exitX=0.5;exitY=1;exitDx=0;exitDy=0;" edge="1" parent="1" source="mOchrtGBSUvOeZHwPW9w-1" target="mOchrtGBSUvOeZHwPW9w-16">
          <mxGeometry relative="1" as="geometry" />
        </mxCell>
        <mxCell id="mOchrtGBSUvOeZHwPW9w-1" value="Login" style="ellipse;whiteSpace=wrap;html=1;" parent="1" vertex="1">
          <mxGeometry x="360" y="60" width="120" height="60" as="geometry" />
        </mxCell>
        <mxCell id="mOchrtGBSUvOeZHwPW9w-87" style="edgeStyle=orthogonalEdgeStyle;rounded=0;orthogonalLoop=1;jettySize=auto;html=1;exitX=0.5;exitY=0.5;exitDx=0;exitDy=0;exitPerimeter=0;entryX=0;entryY=0.5;entryDx=0;entryDy=0;strokeColor=#000066;" parent="1" source="mOchrtGBSUvOeZHwPW9w-2" target="mOchrtGBSUvOeZHwPW9w-47" edge="1">
          <mxGeometry relative="1" as="geometry" />
        </mxCell>
        <mxCell id="mOchrtGBSUvOeZHwPW9w-88" style="edgeStyle=orthogonalEdgeStyle;rounded=0;orthogonalLoop=1;jettySize=auto;html=1;exitX=0.5;exitY=0.5;exitDx=0;exitDy=0;exitPerimeter=0;entryX=0;entryY=0.5;entryDx=0;entryDy=0;strokeColor=#000066;" parent="1" source="mOchrtGBSUvOeZHwPW9w-2" target="mOchrtGBSUvOeZHwPW9w-45" edge="1">
          <mxGeometry relative="1" as="geometry" />
        </mxCell>
        <mxCell id="mOchrtGBSUvOeZHwPW9w-90" style="edgeStyle=orthogonalEdgeStyle;rounded=0;orthogonalLoop=1;jettySize=auto;html=1;exitX=0.5;exitY=0.5;exitDx=0;exitDy=0;exitPerimeter=0;entryX=0;entryY=0.5;entryDx=0;entryDy=0;strokeColor=#000066;" parent="1" source="mOchrtGBSUvOeZHwPW9w-2" target="mOchrtGBSUvOeZHwPW9w-1" edge="1">
          <mxGeometry relative="1" as="geometry" />
        </mxCell>
        <mxCell id="mOchrtGBSUvOeZHwPW9w-2" value="Administrador&lt;br&gt;" style="shape=umlActor;verticalLabelPosition=bottom;verticalAlign=top;html=1;outlineConnect=0;strokeColor=#000066;fillColor=#000066;" parent="1" vertex="1">
          <mxGeometry y="90" width="30" height="60" as="geometry" />
        </mxCell>
        <mxCell id="mOchrtGBSUvOeZHwPW9w-100" style="edgeStyle=orthogonalEdgeStyle;rounded=0;orthogonalLoop=1;jettySize=auto;html=1;exitX=0.5;exitY=0.5;exitDx=0;exitDy=0;exitPerimeter=0;entryX=1;entryY=0.5;entryDx=0;entryDy=0;fillColor=#11FF00;strokeColor=#006600;" parent="1" source="mOchrtGBSUvOeZHwPW9w-7" target="mOchrtGBSUvOeZHwPW9w-1" edge="1">
          <mxGeometry relative="1" as="geometry" />
        </mxCell>
        <mxCell id="VuA5J5qUPSrzdDbSEKbh-1" style="edgeStyle=orthogonalEdgeStyle;rounded=0;orthogonalLoop=1;jettySize=auto;html=1;exitX=0.5;exitY=0.5;exitDx=0;exitDy=0;exitPerimeter=0;entryX=1;entryY=0;entryDx=0;entryDy=0;strokeColor=#006600;" parent="1" source="mOchrtGBSUvOeZHwPW9w-7" target="mOchrtGBSUvOeZHwPW9w-12" edge="1">
          <mxGeometry relative="1" as="geometry" />
        </mxCell>
        <mxCell id="VuA5J5qUPSrzdDbSEKbh-2" style="edgeStyle=orthogonalEdgeStyle;rounded=0;orthogonalLoop=1;jettySize=auto;html=1;exitX=0.5;exitY=0.5;exitDx=0;exitDy=0;exitPerimeter=0;entryX=1;entryY=0;entryDx=0;entryDy=0;strokeColor=#006600;" parent="1" source="mOchrtGBSUvOeZHwPW9w-7" target="mOchrtGBSUvOeZHwPW9w-16" edge="1">
          <mxGeometry relative="1" as="geometry">
            <Array as="points">
              <mxPoint x="530" y="50" />
              <mxPoint x="530" y="150" />
              <mxPoint x="503" y="150" />
            </Array>
          </mxGeometry>
        </mxCell>
        <mxCell id="VuA5J5qUPSrzdDbSEKbh-3" style="edgeStyle=orthogonalEdgeStyle;rounded=0;orthogonalLoop=1;jettySize=auto;html=1;exitX=0.5;exitY=0.5;exitDx=0;exitDy=0;exitPerimeter=0;entryX=0.5;entryY=0;entryDx=0;entryDy=0;strokeColor=#006600;" parent="1" source="mOchrtGBSUvOeZHwPW9w-7" target="mOchrtGBSUvOeZHwPW9w-22" edge="1">
          <mxGeometry relative="1" as="geometry" />
        </mxCell>
        <mxCell id="VuA5J5qUPSrzdDbSEKbh-6" style="edgeStyle=orthogonalEdgeStyle;rounded=0;orthogonalLoop=1;jettySize=auto;html=1;exitX=0.5;exitY=0.5;exitDx=0;exitDy=0;exitPerimeter=0;entryX=0.5;entryY=0;entryDx=0;entryDy=0;strokeColor=#006600;" parent="1" source="mOchrtGBSUvOeZHwPW9w-7" target="mOchrtGBSUvOeZHwPW9w-23" edge="1">
          <mxGeometry relative="1" as="geometry" />
        </mxCell>
        <mxCell id="VuA5J5qUPSrzdDbSEKbh-7" style="edgeStyle=orthogonalEdgeStyle;rounded=0;orthogonalLoop=1;jettySize=auto;html=1;exitX=0.5;exitY=0.5;exitDx=0;exitDy=0;exitPerimeter=0;entryX=0.5;entryY=0;entryDx=0;entryDy=0;strokeColor=#006600;" parent="1" source="mOchrtGBSUvOeZHwPW9w-7" target="mOchrtGBSUvOeZHwPW9w-24" edge="1">
          <mxGeometry relative="1" as="geometry" />
        </mxCell>
        <mxCell id="VuA5J5qUPSrzdDbSEKbh-8" style="edgeStyle=orthogonalEdgeStyle;rounded=0;orthogonalLoop=1;jettySize=auto;html=1;exitX=0.5;exitY=0.5;exitDx=0;exitDy=0;exitPerimeter=0;entryX=1;entryY=0;entryDx=0;entryDy=0;strokeColor=#006600;" parent="1" source="mOchrtGBSUvOeZHwPW9w-7" target="mOchrtGBSUvOeZHwPW9w-50" edge="1">
          <mxGeometry relative="1" as="geometry">
            <Array as="points">
              <mxPoint x="770" y="50" />
              <mxPoint x="770" y="360" />
              <mxPoint x="383" y="360" />
            </Array>
          </mxGeometry>
        </mxCell>
        <mxCell id="VuA5J5qUPSrzdDbSEKbh-9" style="edgeStyle=orthogonalEdgeStyle;rounded=0;orthogonalLoop=1;jettySize=auto;html=1;exitX=0.5;exitY=0.5;exitDx=0;exitDy=0;exitPerimeter=0;entryX=1;entryY=0;entryDx=0;entryDy=0;strokeColor=#006600;" parent="1" source="mOchrtGBSUvOeZHwPW9w-7" target="mOchrtGBSUvOeZHwPW9w-54" edge="1">
          <mxGeometry relative="1" as="geometry">
            <Array as="points">
              <mxPoint x="825" y="140" />
              <mxPoint x="690" y="140" />
              <mxPoint x="690" y="460" />
              <mxPoint x="383" y="460" />
            </Array>
          </mxGeometry>
        </mxCell>
        <mxCell id="VuA5J5qUPSrzdDbSEKbh-10" style="edgeStyle=orthogonalEdgeStyle;rounded=0;orthogonalLoop=1;jettySize=auto;html=1;exitX=0.5;exitY=0.5;exitDx=0;exitDy=0;exitPerimeter=0;entryX=1;entryY=1;entryDx=0;entryDy=0;strokeColor=#006600;" parent="1" source="mOchrtGBSUvOeZHwPW9w-7" target="mOchrtGBSUvOeZHwPW9w-56" edge="1">
          <mxGeometry relative="1" as="geometry">
            <Array as="points">
              <mxPoint x="770" y="50" />
              <mxPoint x="770" y="350" />
              <mxPoint x="583" y="350" />
            </Array>
          </mxGeometry>
        </mxCell>
        <mxCell id="VuA5J5qUPSrzdDbSEKbh-12" style="edgeStyle=orthogonalEdgeStyle;rounded=0;orthogonalLoop=1;jettySize=auto;html=1;exitX=0.5;exitY=0.5;exitDx=0;exitDy=0;exitPerimeter=0;entryX=1;entryY=1;entryDx=0;entryDy=0;strokeColor=#006600;" parent="1" source="mOchrtGBSUvOeZHwPW9w-7" target="mOchrtGBSUvOeZHwPW9w-57" edge="1">
          <mxGeometry relative="1" as="geometry">
            <Array as="points">
              <mxPoint x="725" y="50" />
              <mxPoint x="725" y="450" />
              <mxPoint x="583" y="450" />
            </Array>
          </mxGeometry>
        </mxCell>
        <mxCell id="VuA5J5qUPSrzdDbSEKbh-13" style="edgeStyle=orthogonalEdgeStyle;rounded=0;orthogonalLoop=1;jettySize=auto;html=1;exitX=0.5;exitY=0.5;exitDx=0;exitDy=0;exitPerimeter=0;entryX=1;entryY=1;entryDx=0;entryDy=0;strokeColor=#006600;" parent="1" source="mOchrtGBSUvOeZHwPW9w-7" target="mOchrtGBSUvOeZHwPW9w-58" edge="1">
          <mxGeometry relative="1" as="geometry">
            <Array as="points">
              <mxPoint x="820" y="50" />
              <mxPoint x="820" y="500" />
              <mxPoint x="640" y="500" />
              <mxPoint x="640" y="550" />
              <mxPoint x="583" y="550" />
            </Array>
          </mxGeometry>
        </mxCell>
        <mxCell id="VuA5J5qUPSrzdDbSEKbh-15" style="edgeStyle=orthogonalEdgeStyle;rounded=0;orthogonalLoop=1;jettySize=auto;html=1;exitX=0.5;exitY=0.5;exitDx=0;exitDy=0;exitPerimeter=0;entryX=1;entryY=1;entryDx=0;entryDy=0;strokeColor=#006600;" parent="1" source="mOchrtGBSUvOeZHwPW9w-7" target="mOchrtGBSUvOeZHwPW9w-79" edge="1">
          <mxGeometry relative="1" as="geometry">
            <Array as="points">
              <mxPoint x="820" y="50" />
              <mxPoint x="820" y="850" />
              <mxPoint x="583" y="850" />
            </Array>
          </mxGeometry>
        </mxCell>
        <mxCell id="VuA5J5qUPSrzdDbSEKbh-16" style="edgeStyle=orthogonalEdgeStyle;rounded=0;orthogonalLoop=1;jettySize=auto;html=1;exitX=0.5;exitY=0.5;exitDx=0;exitDy=0;exitPerimeter=0;entryX=1;entryY=0;entryDx=0;entryDy=0;strokeColor=#006600;" parent="1" source="mOchrtGBSUvOeZHwPW9w-7" target="mOchrtGBSUvOeZHwPW9w-76" edge="1">
          <mxGeometry relative="1" as="geometry" />
        </mxCell>
        <mxCell id="VuA5J5qUPSrzdDbSEKbh-17" style="edgeStyle=orthogonalEdgeStyle;rounded=0;orthogonalLoop=1;jettySize=auto;html=1;exitX=0.5;exitY=0.5;exitDx=0;exitDy=0;exitPerimeter=0;entryX=1;entryY=1;entryDx=0;entryDy=0;strokeColor=#006600;" parent="1" source="mOchrtGBSUvOeZHwPW9w-7" target="mOchrtGBSUvOeZHwPW9w-64" edge="1">
          <mxGeometry relative="1" as="geometry">
            <Array as="points">
              <mxPoint x="820" y="50" />
              <mxPoint x="820" y="650" />
              <mxPoint x="583" y="650" />
            </Array>
          </mxGeometry>
        </mxCell>
        <mxCell id="VuA5J5qUPSrzdDbSEKbh-18" style="edgeStyle=orthogonalEdgeStyle;rounded=0;orthogonalLoop=1;jettySize=auto;html=1;exitX=0.5;exitY=0.5;exitDx=0;exitDy=0;exitPerimeter=0;entryX=1;entryY=1;entryDx=0;entryDy=0;strokeColor=#006600;" parent="1" source="mOchrtGBSUvOeZHwPW9w-7" target="mOchrtGBSUvOeZHwPW9w-66" edge="1">
          <mxGeometry relative="1" as="geometry">
            <Array as="points">
              <mxPoint x="800" y="50" />
              <mxPoint x="800" y="750" />
              <mxPoint x="583" y="750" />
            </Array>
          </mxGeometry>
        </mxCell>
        <mxCell id="mOchrtGBSUvOeZHwPW9w-7" value="UsuÃ¡rio" style="shape=umlActor;verticalLabelPosition=bottom;verticalAlign=top;html=1;outlineConnect=0;fillColor=#006600;strokeColor=#006600;" parent="1" vertex="1">
          <mxGeometry x="810" y="20" width="30" height="60" as="geometry" />
        </mxCell>
        <mxCell id="mOchrtGBSUvOeZHwPW9w-59" style="edgeStyle=orthogonalEdgeStyle;rounded=0;orthogonalLoop=1;jettySize=auto;html=1;exitX=0;exitY=1;exitDx=0;exitDy=0;entryX=1;entryY=0;entryDx=0;entryDy=0;" parent="1" source="mOchrtGBSUvOeZHwPW9w-12" target="mOchrtGBSUvOeZHwPW9w-56" edge="1">
          <mxGeometry relative="1" as="geometry" />
        </mxCell>
        <mxCell id="mOchrtGBSUvOeZHwPW9w-77" style="edgeStyle=orthogonalEdgeStyle;rounded=0;orthogonalLoop=1;jettySize=auto;html=1;exitX=1;exitY=1;exitDx=0;exitDy=0;entryX=0.5;entryY=0;entryDx=0;entryDy=0;" parent="1" source="mOchrtGBSUvOeZHwPW9w-12" target="mOchrtGBSUvOeZHwPW9w-76" edge="1">
          <mxGeometry relative="1" as="geometry" />
        </mxCell>
        <mxCell id="mOchrtGBSUvOeZHwPW9w-12" value="Criar projeto" style="ellipse;whiteSpace=wrap;html=1;" parent="1" vertex="1">
          <mxGeometry x="560" y="180" width="120" height="60" as="geometry" />
        </mxCell>
        <mxCell id="mOchrtGBSUvOeZHwPW9w-62" style="edgeStyle=orthogonalEdgeStyle;rounded=0;orthogonalLoop=1;jettySize=auto;html=1;exitX=1;exitY=1;exitDx=0;exitDy=0;entryX=0;entryY=0;entryDx=0;entryDy=0;" parent="1" source="mOchrtGBSUvOeZHwPW9w-16" target="mOchrtGBSUvOeZHwPW9w-56" edge="1">
          <mxGeometry relative="1" as="geometry" />
        </mxCell>
        <mxCell id="mOchrtGBSUvOeZHwPW9w-16" value="Participar projeto" style="ellipse;whiteSpace=wrap;html=1;" parent="1" vertex="1">
          <mxGeometry x="400" y="180" width="120" height="60" as="geometry" />
        </mxCell>
        <mxCell id="VuA5J5qUPSrzdDbSEKbh-4" style="edgeStyle=orthogonalEdgeStyle;rounded=0;orthogonalLoop=1;jettySize=auto;html=1;exitX=0;exitY=1;exitDx=0;exitDy=0;entryX=1;entryY=0;entryDx=0;entryDy=0;" parent="1" source="mOchrtGBSUvOeZHwPW9w-22" target="mOchrtGBSUvOeZHwPW9w-23" edge="1">
          <mxGeometry relative="1" as="geometry" />
        </mxCell>
        <mxCell id="VuA5J5qUPSrzdDbSEKbh-5" style="edgeStyle=orthogonalEdgeStyle;rounded=0;orthogonalLoop=1;jettySize=auto;html=1;exitX=1;exitY=1;exitDx=0;exitDy=0;entryX=0;entryY=0;entryDx=0;entryDy=0;" parent="1" source="mOchrtGBSUvOeZHwPW9w-22" target="mOchrtGBSUvOeZHwPW9w-24" edge="1">
          <mxGeometry relative="1" as="geometry" />
        </mxCell>
        <mxCell id="VuA5J5qUPSrzdDbSEKbh-11" style="edgeStyle=orthogonalEdgeStyle;rounded=0;orthogonalLoop=1;jettySize=auto;html=1;exitX=0.5;exitY=1;exitDx=0;exitDy=0;entryX=0;entryY=0.5;entryDx=0;entryDy=0;" parent="1" source="mOchrtGBSUvOeZHwPW9w-22" target="mOchrtGBSUvOeZHwPW9w-66" edge="1">
          <mxGeometry relative="1" as="geometry" />
        </mxCell>
        <mxCell id="mOchrtGBSUvOeZHwPW9w-22" value="Mensagens" style="ellipse;whiteSpace=wrap;html=1;" parent="1" vertex="1">
          <mxGeometry x="200" y="180" width="120" height="60" as="geometry" />
        </mxCell>
        <mxCell id="mOchrtGBSUvOeZHwPW9w-46" style="edgeStyle=orthogonalEdgeStyle;rounded=0;orthogonalLoop=1;jettySize=auto;html=1;exitX=0.5;exitY=1;exitDx=0;exitDy=0;entryX=0.5;entryY=0;entryDx=0;entryDy=0;" parent="1" source="mOchrtGBSUvOeZHwPW9w-23" target="mOchrtGBSUvOeZHwPW9w-45" edge="1">
          <mxGeometry relative="1" as="geometry" />
        </mxCell>
        <mxCell id="mOchrtGBSUvOeZHwPW9w-23" value="Denunciar" style="ellipse;whiteSpace=wrap;html=1;" parent="1" vertex="1">
          <mxGeometry x="120" y="300" width="120" height="60" as="geometry" />
        </mxCell>
        <mxCell id="mOchrtGBSUvOeZHwPW9w-51" style="edgeStyle=orthogonalEdgeStyle;rounded=0;orthogonalLoop=1;jettySize=auto;html=1;exitX=0.5;exitY=1;exitDx=0;exitDy=0;" parent="1" source="mOchrtGBSUvOeZHwPW9w-24" target="mOchrtGBSUvOeZHwPW9w-50" edge="1">
          <mxGeometry relative="1" as="geometry" />
        </mxCell>
        <mxCell id="mOchrtGBSUvOeZHwPW9w-24" value="Enviar" style="ellipse;whiteSpace=wrap;html=1;" parent="1" vertex="1">
          <mxGeometry x="280" y="300" width="120" height="60" as="geometry" />
        </mxCell>
        <mxCell id="mOchrtGBSUvOeZHwPW9w-53" style="edgeStyle=orthogonalEdgeStyle;rounded=0;orthogonalLoop=1;jettySize=auto;html=1;exitX=0.5;exitY=1;exitDx=0;exitDy=0;entryX=0.5;entryY=0;entryDx=0;entryDy=0;" parent="1" source="mOchrtGBSUvOeZHwPW9w-45" target="mOchrtGBSUvOeZHwPW9w-47" edge="1">
          <mxGeometry relative="1" as="geometry" />
        </mxCell>
        <mxCell id="mOchrtGBSUvOeZHwPW9w-45" value="Analizar" style="ellipse;whiteSpace=wrap;html=1;" parent="1" vertex="1">
          <mxGeometry x="120" y="400" width="120" height="60" as="geometry" />
        </mxCell>
        <mxCell id="mOchrtGBSUvOeZHwPW9w-47" value="&amp;nbsp;Medidas" style="ellipse;whiteSpace=wrap;html=1;" parent="1" vertex="1">
          <mxGeometry x="120" y="500" width="120" height="60" as="geometry" />
        </mxCell>
        <mxCell id="mOchrtGBSUvOeZHwPW9w-55" style="edgeStyle=orthogonalEdgeStyle;rounded=0;orthogonalLoop=1;jettySize=auto;html=1;exitX=0.5;exitY=1;exitDx=0;exitDy=0;entryX=0.5;entryY=0;entryDx=0;entryDy=0;" parent="1" source="mOchrtGBSUvOeZHwPW9w-50" target="mOchrtGBSUvOeZHwPW9w-54" edge="1">
          <mxGeometry relative="1" as="geometry" />
        </mxCell>
        <mxCell id="mOchrtGBSUvOeZHwPW9w-50" value="Receptor" style="ellipse;whiteSpace=wrap;html=1;" parent="1" vertex="1">
          <mxGeometry x="280" y="400" width="120" height="60" as="geometry" />
        </mxCell>
        <mxCell id="mOchrtGBSUvOeZHwPW9w-54" value="Recebido" style="ellipse;whiteSpace=wrap;html=1;" parent="1" vertex="1">
          <mxGeometry x="280" y="500" width="120" height="60" as="geometry" />
        </mxCell>
        <mxCell id="mOchrtGBSUvOeZHwPW9w-60" style="edgeStyle=orthogonalEdgeStyle;rounded=0;orthogonalLoop=1;jettySize=auto;html=1;exitX=0.5;exitY=1;exitDx=0;exitDy=0;entryX=0.5;entryY=0;entryDx=0;entryDy=0;" parent="1" source="mOchrtGBSUvOeZHwPW9w-56" target="mOchrtGBSUvOeZHwPW9w-57" edge="1">
          <mxGeometry relative="1" as="geometry" />
        </mxCell>
        <mxCell id="mOchrtGBSUvOeZHwPW9w-56" value="Nome" style="ellipse;whiteSpace=wrap;html=1;" parent="1" vertex="1">
          <mxGeometry x="480" y="280" width="120" height="60" as="geometry" />
        </mxCell>
        <mxCell id="mOchrtGBSUvOeZHwPW9w-61" style="edgeStyle=orthogonalEdgeStyle;rounded=0;orthogonalLoop=1;jettySize=auto;html=1;exitX=0.5;exitY=1;exitDx=0;exitDy=0;entryX=0.5;entryY=0;entryDx=0;entryDy=0;" parent="1" source="mOchrtGBSUvOeZHwPW9w-57" target="mOchrtGBSUvOeZHwPW9w-58" edge="1">
          <mxGeometry relative="1" as="geometry" />
        </mxCell>
        <mxCell id="mOchrtGBSUvOeZHwPW9w-57" value="EspecificaÃ§Ãµes" style="ellipse;whiteSpace=wrap;html=1;" parent="1" vertex="1">
          <mxGeometry x="480" y="380" width="120" height="60" as="geometry" />
        </mxCell>
        <mxCell id="mOchrtGBSUvOeZHwPW9w-65" style="edgeStyle=orthogonalEdgeStyle;rounded=0;orthogonalLoop=1;jettySize=auto;html=1;exitX=0.5;exitY=1;exitDx=0;exitDy=0;entryX=0.5;entryY=0;entryDx=0;entryDy=0;" parent="1" source="mOchrtGBSUvOeZHwPW9w-58" target="mOchrtGBSUvOeZHwPW9w-64" edge="1">
          <mxGeometry relative="1" as="geometry" />
        </mxCell>
        <mxCell id="mOchrtGBSUvOeZHwPW9w-58" value="Participantes" style="ellipse;whiteSpace=wrap;html=1;" parent="1" vertex="1">
          <mxGeometry x="480" y="480" width="120" height="60" as="geometry" />
        </mxCell>
        <mxCell id="mOchrtGBSUvOeZHwPW9w-69" style="edgeStyle=orthogonalEdgeStyle;rounded=0;orthogonalLoop=1;jettySize=auto;html=1;exitX=0.5;exitY=1;exitDx=0;exitDy=0;entryX=0.5;entryY=0;entryDx=0;entryDy=0;" parent="1" source="mOchrtGBSUvOeZHwPW9w-64" target="mOchrtGBSUvOeZHwPW9w-66" edge="1">
          <mxGeometry relative="1" as="geometry" />
        </mxCell>
        <mxCell id="mOchrtGBSUvOeZHwPW9w-64" value="DescriÃ§Ã£o" style="ellipse;whiteSpace=wrap;html=1;" parent="1" vertex="1">
          <mxGeometry x="480" y="580" width="120" height="60" as="geometry" />
        </mxCell>
        <mxCell id="mOchrtGBSUvOeZHwPW9w-80" style="edgeStyle=orthogonalEdgeStyle;rounded=0;orthogonalLoop=1;jettySize=auto;html=1;exitX=0.5;exitY=1;exitDx=0;exitDy=0;entryX=0.5;entryY=0;entryDx=0;entryDy=0;" parent="1" source="mOchrtGBSUvOeZHwPW9w-66" target="mOchrtGBSUvOeZHwPW9w-79" edge="1">
          <mxGeometry relative="1" as="geometry" />
        </mxCell>
        <mxCell id="mOchrtGBSUvOeZHwPW9w-66" value="Chat grupo" style="ellipse;whiteSpace=wrap;html=1;" parent="1" vertex="1">
          <mxGeometry x="480" y="680" width="120" height="60" as="geometry" />
        </mxCell>
        <mxCell id="mOchrtGBSUvOeZHwPW9w-78" style="edgeStyle=orthogonalEdgeStyle;rounded=0;orthogonalLoop=1;jettySize=auto;html=1;exitX=0.5;exitY=1;exitDx=0;exitDy=0;entryX=1;entryY=0.5;entryDx=0;entryDy=0;" parent="1" source="mOchrtGBSUvOeZHwPW9w-76" target="mOchrtGBSUvOeZHwPW9w-66" edge="1">
          <mxGeometry relative="1" as="geometry" />
        </mxCell>
        <mxCell id="mOchrtGBSUvOeZHwPW9w-82" style="edgeStyle=orthogonalEdgeStyle;rounded=0;orthogonalLoop=1;jettySize=auto;html=1;exitX=0;exitY=0.5;exitDx=0;exitDy=0;entryX=1;entryY=0.5;entryDx=0;entryDy=0;" parent="1" source="mOchrtGBSUvOeZHwPW9w-76" target="mOchrtGBSUvOeZHwPW9w-64" edge="1">
          <mxGeometry relative="1" as="geometry" />
        </mxCell>
        <mxCell id="mOchrtGBSUvOeZHwPW9w-83" style="edgeStyle=orthogonalEdgeStyle;rounded=0;orthogonalLoop=1;jettySize=auto;html=1;exitX=0;exitY=0.5;exitDx=0;exitDy=0;entryX=1;entryY=0.5;entryDx=0;entryDy=0;" parent="1" source="mOchrtGBSUvOeZHwPW9w-76" target="mOchrtGBSUvOeZHwPW9w-58" edge="1">
          <mxGeometry relative="1" as="geometry" />
        </mxCell>
        <mxCell id="mOchrtGBSUvOeZHwPW9w-84" style="edgeStyle=orthogonalEdgeStyle;rounded=0;orthogonalLoop=1;jettySize=auto;html=1;exitX=0;exitY=0.5;exitDx=0;exitDy=0;entryX=1;entryY=0.5;entryDx=0;entryDy=0;" parent="1" source="mOchrtGBSUvOeZHwPW9w-76" target="mOchrtGBSUvOeZHwPW9w-57" edge="1">
          <mxGeometry relative="1" as="geometry" />
        </mxCell>
        <mxCell id="mOchrtGBSUvOeZHwPW9w-85" style="edgeStyle=orthogonalEdgeStyle;rounded=0;orthogonalLoop=1;jettySize=auto;html=1;exitX=0.5;exitY=1;exitDx=0;exitDy=0;entryX=1;entryY=0.5;entryDx=0;entryDy=0;" parent="1" source="mOchrtGBSUvOeZHwPW9w-76" target="mOchrtGBSUvOeZHwPW9w-79" edge="1">
          <mxGeometry relative="1" as="geometry" />
        </mxCell>
        <mxCell id="mOchrtGBSUvOeZHwPW9w-86" style="edgeStyle=orthogonalEdgeStyle;rounded=0;orthogonalLoop=1;jettySize=auto;html=1;exitX=0;exitY=0.5;exitDx=0;exitDy=0;entryX=1;entryY=0.5;entryDx=0;entryDy=0;" parent="1" source="mOchrtGBSUvOeZHwPW9w-76" target="mOchrtGBSUvOeZHwPW9w-56" edge="1">
          <mxGeometry relative="1" as="geometry" />
        </mxCell>
        <mxCell id="mOchrtGBSUvOeZHwPW9w-76" value="Moderar" style="ellipse;whiteSpace=wrap;html=1;" parent="1" vertex="1">
          <mxGeometry x="650" y="510" width="120" height="60" as="geometry" />
        </mxCell>
        <mxCell id="mOchrtGBSUvOeZHwPW9w-79" value="Postar" style="ellipse;whiteSpace=wrap;html=1;" parent="1" vertex="1">
          <mxGeometry x="480" y="780" width="120" height="60" as="geometry" />
        </mxCell>
      </root>
    </mxGraphModel>
  </diagram>
</mxfile>
